<?xml version="1.0" encoding="UTF-8" standalone="no"?>
<svg
   xmlns:dc="http://purl.org/dc/elements/1.1/"
   xmlns:cc="http://creativecommons.org/ns#"
   xmlns:rdf="http://www.w3.org/1999/02/22-rdf-syntax-ns#"
   xmlns:svg="http://www.w3.org/2000/svg"
   xmlns="http://www.w3.org/2000/svg"
   id="svg8"
   version="1.1"
   viewBox="0 0 134.23654 20.090885"
   height="20.090885mm"
   width="134.23654mm">
  <defs
     id="defs2" />
  <metadata
     id="metadata5">
    <rdf:RDF>
      <cc:Work
         rdf:about="">
        <dc:format>image/svg+xml</dc:format>
        <dc:type
           rdf:resource="http://purl.org/dc/dcmitype/StillImage" />
        <dc:title></dc:title>
      </cc:Work>
    </rdf:RDF>
  </metadata>
  <g
     transform="translate(-36.844373,-76.319205)"
     id="layer1">
    <g
       id="text817"
       style="font-style:normal;font-variant:normal;font-weight:normal;font-stretch:normal;font-size:22.57777786px;line-height:1.25;font-family:'Courier New';-inkscape-font-specification:'Courier New';letter-spacing:0px;word-spacing:0px;fill:#000000;fill-opacity:1;stroke:none;stroke-width:0.26458332"
       aria-label="codemonger">
      <path
         id="path819"
         style="font-style:normal;font-variant:normal;font-weight:normal;font-stretch:normal;font-size:22.57777786px;font-family:'Courier New';-inkscape-font-specification:'Courier New';stroke-width:0.26458332"
         d="m 46.597672,82.544726 v -0.30868 q 0,-0.341754 0.132292,-0.48507 0.132291,-0.143316 0.330729,-0.143316 0.209462,0 0.341753,0.143316 0.132292,0.143316 0.132292,0.48507 v 2.094618 q -0.01102,0.341753 -0.143316,0.485069 -0.121267,0.143316 -0.330729,0.143316 -0.187413,0 -0.319705,-0.121267 -0.121267,-0.132292 -0.143316,-0.429948 -0.06615,-0.782726 -1.036285,-1.488281 -0.959114,-0.705556 -2.590712,-0.705556 -2.061545,0 -3.130902,1.289844 -1.069358,1.289844 -1.069358,2.954514 0,1.796961 1.179601,2.965538 1.1796,1.168576 3.053732,1.168576 1.080382,0 2.193837,-0.396875 1.124479,-0.396875 2.028472,-1.278819 0.231511,-0.220486 0.4079,-0.220486 0.187413,0 0.30868,0.132291 0.132292,0.121268 0.132292,0.308681 0,0.474045 -1.113455,1.201649 -1.796962,1.179601 -4.001823,1.179601 -2.237934,0 -3.682118,-1.422135 -1.43316,-1.43316 -1.43316,-3.626997 0,-2.237934 1.466233,-3.715191 1.477257,-1.477257 3.715191,-1.477257 2.127691,0 3.571875,1.267795 z" />
      <path
         id="path821"
         style="font-style:normal;font-variant:normal;font-weight:normal;font-stretch:normal;font-size:22.57777786px;font-family:'Courier New';-inkscape-font-specification:'Courier New';stroke-width:0.26458332"
         d="m 61.447412,86.403233 q 0,2.116667 -1.521354,3.615972 -1.51033,1.499306 -3.649045,1.499306 -2.160764,0 -3.671094,-1.499306 -1.51033,-1.510329 -1.51033,-3.615972 0,-2.116667 1.51033,-3.615972 1.51033,-1.51033 3.671094,-1.51033 2.138715,0 3.649045,1.499306 1.521354,1.499305 1.521354,3.626996 z m -0.937066,0 q 0,-1.74184 -1.245747,-2.965538 -1.234722,-1.223698 -2.998611,-1.223698 -1.763889,0 -3.009635,1.234722 -1.234722,1.223698 -1.234722,2.954514 0,1.719792 1.234722,2.954514 1.245746,1.234722 3.009635,1.234722 1.763889,0 2.998611,-1.223698 1.245747,-1.234722 1.245747,-2.965538 z" />
      <path
         id="path823"
         style="font-style:normal;font-variant:normal;font-weight:normal;font-stretch:normal;font-size:22.57777786px;font-family:'Courier New';-inkscape-font-specification:'Courier New';stroke-width:0.26458332"
         d="m 74.34585,77.319205 v 12.909462 h 1.234722 q 0.341753,0 0.485069,0.132292 0.143316,0.121267 0.143316,0.330729 0,0.198438 -0.143316,0.330729 -0.143316,0.132292 -0.485069,0.132292 H 73.408784 V 89.31365 q -1.609549,2.204861 -4.090018,2.204861 -1.256771,0 -2.414323,-0.661458 -1.146527,-0.672483 -1.81901,-1.907205 -0.661458,-1.234722 -0.661458,-2.546615 0,-1.322917 0.661458,-2.546614 0.672483,-1.234723 1.81901,-1.907205 1.157552,-0.672483 2.425348,-0.672483 2.425347,0 4.078993,2.204861 v -5.225521 h -1.234723 q -0.341753,0 -0.485069,-0.132291 -0.143316,-0.132292 -0.143316,-0.341754 0,-0.198437 0.143316,-0.330729 0.143316,-0.132292 0.485069,-0.132292 z m -0.937066,9.084028 q 0,-1.763889 -1.190625,-2.976562 -1.190625,-1.212674 -2.833247,-1.212674 -1.653646,0 -2.844271,1.212674 -1.190625,1.212673 -1.190625,2.976562 0,1.752865 1.190625,2.976563 1.190625,1.212673 2.844271,1.212673 1.642622,0 2.833247,-1.212673 1.190625,-1.223698 1.190625,-2.976563 z" />
      <path
         id="path825"
         style="font-style:normal;font-variant:normal;font-weight:normal;font-stretch:normal;font-size:22.57777786px;font-family:'Courier New';-inkscape-font-specification:'Courier New';stroke-width:0.26458332"
         d="m 88.35774,86.601671 h -9.436805 q 0.242535,1.796961 1.499305,2.899392 1.267796,1.091406 3.130903,1.091406 1.036285,0 2.171788,-0.341753 1.135504,-0.341754 1.852084,-0.903993 0.209462,-0.165365 0.363802,-0.165365 0.176389,0 0.30868,0.143316 0.132292,0.132292 0.132292,0.319705 0,0.187413 -0.176389,0.363802 -0.529167,0.551215 -1.885156,1.036285 -1.344965,0.474045 -2.767101,0.474045 -2.38125,0 -3.979774,-1.554427 -1.5875,-1.565452 -1.5875,-3.781337 0,-2.017448 1.488281,-3.461632 1.499306,-1.444184 3.704167,-1.444184 2.271007,0 3.737239,1.488281 1.466233,1.477257 1.444184,3.836459 z m -0.937066,-0.937066 q -0.275607,-1.532379 -1.455208,-2.491493 -1.168576,-0.959115 -2.789149,-0.959115 -1.620573,0 -2.78915,0.94809 -1.168576,0.948091 -1.455208,2.502518 z" />
      <path
         id="path827"
         style="font-style:normal;font-variant:normal;font-weight:normal;font-stretch:normal;font-size:22.57777786px;font-family:'Courier New';-inkscape-font-specification:'Courier New';stroke-width:0.26458332"
         d="m 92.668246,81.60766 v 0.937066 q 1.179601,-1.267795 2.370226,-1.267795 0.71658,0 1.256771,0.385851 0.540191,0.374826 0.903993,1.146528 0.617361,-0.771702 1.245746,-1.146528 0.63941,-0.385851 1.27882,-0.385851 1.003208,0 1.598528,0.650434 0.78272,0.837847 0.78272,1.830035 v 6.471267 h 0.78273 q 0.33073,0 0.47404,0.132292 0.14332,0.121267 0.14332,0.330729 0,0.198438 -0.14332,0.330729 -0.14331,0.132292 -0.47404,0.132292 h -1.70877 v -7.309115 q 0,-0.705555 -0.42995,-1.168576 -0.42995,-0.463021 -0.992185,-0.463021 -0.507119,0 -1.069358,0.385851 -0.56224,0.374826 -1.27882,1.488281 v 6.140538 h 0.771702 q 0.330729,0 0.474045,0.132292 0.143316,0.121267 0.143316,0.330729 0,0.198438 -0.143316,0.330729 -0.143316,0.132292 -0.474045,0.132292 H 96.471631 V 83.91174 q 0,-0.738628 -0.440972,-1.212674 -0.429948,-0.485069 -0.970139,-0.485069 -0.496093,0 -0.981163,0.319705 -0.672482,0.451996 -1.411111,1.554427 v 6.140538 h 0.782726 q 0.330729,0 0.474045,0.132292 0.143316,0.121267 0.143316,0.330729 0,0.198438 -0.143316,0.330729 -0.143316,0.132292 -0.474045,0.132292 h -2.491493 q -0.330729,0 -0.474045,-0.132292 -0.143316,-0.132291 -0.143316,-0.330729 0,-0.209462 0.143316,-0.330729 0.143316,-0.132292 0.474045,-0.132292 h 0.782725 v -7.683941 h -0.782725 q -0.330729,0 -0.474045,-0.132291 -0.143316,-0.132292 -0.143316,-0.341754 0,-0.198437 0.143316,-0.330729 0.143316,-0.132292 0.474045,-0.132292 z" />
      <path
         id="path829"
         style="font-style:normal;font-variant:normal;font-weight:normal;font-stretch:normal;font-size:22.57777786px;font-family:'Courier New';-inkscape-font-specification:'Courier New';stroke-width:0.26458332"
         d="m 115.5988,86.403233 q 0,2.116667 -1.52135,3.615972 -1.51033,1.499306 -3.64905,1.499306 -2.16076,0 -3.67109,-1.499306 -1.51033,-1.510329 -1.51033,-3.615972 0,-2.116667 1.51033,-3.615972 1.51033,-1.51033 3.67109,-1.51033 2.13872,0 3.64905,1.499306 1.52135,1.499305 1.52135,3.626996 z m -0.93706,0 q 0,-1.74184 -1.24575,-2.965538 -1.23472,-1.223698 -2.99861,-1.223698 -1.76389,0 -3.00964,1.234722 -1.23472,1.223698 -1.23472,2.954514 0,1.719792 1.23472,2.954514 1.24575,1.234722 3.00964,1.234722 1.76389,0 2.99861,-1.223698 1.24575,-1.234722 1.24575,-2.965538 z" />
      <path
         id="path831"
         style="font-style:normal;font-variant:normal;font-weight:normal;font-stretch:normal;font-size:22.57777786px;font-family:'Courier New';-inkscape-font-specification:'Courier New';stroke-width:0.26458332"
         d="m 120.96764,81.60766 v 1.400087 q 0.97013,-0.981163 1.75286,-1.35599 0.78273,-0.374826 1.76389,-0.374826 1.05833,0 1.92925,0.451997 0.61736,0.330729 1.11346,1.10243 0.50712,0.760677 0.50712,1.565452 v 5.831857 h 0.78272 q 0.33073,0 0.47405,0.132292 0.14331,0.121267 0.14331,0.330729 0,0.198438 -0.14331,0.330729 -0.14332,0.132292 -0.47405,0.132292 h -2.48047 q -0.34175,0 -0.48507,-0.132292 -0.14331,-0.132291 -0.14331,-0.330729 0,-0.209462 0.14331,-0.330729 0.14332,-0.132292 0.48507,-0.132292 h 0.7717 V 84.55115 q 0,-0.981163 -0.71658,-1.653646 -0.71658,-0.683507 -1.91823,-0.683507 -0.91501,0 -1.5875,0.374826 -0.67248,0.363802 -1.91822,1.830035 v 5.809809 h 1.0473 q 0.33073,0 0.47405,0.132292 0.14332,0.121267 0.14332,0.330729 0,0.198438 -0.14332,0.330729 -0.14332,0.132292 -0.47405,0.132292 h -3.02066 q -0.33072,0 -0.47404,-0.132292 -0.14332,-0.132291 -0.14332,-0.330729 0,-0.209462 0.14332,-0.330729 0.14332,-0.132292 0.47404,-0.132292 h 1.04731 v -7.683941 h -0.78272 q -0.33073,0 -0.47405,-0.132291 -0.14331,-0.132292 -0.14331,-0.341754 0,-0.198437 0.14331,-0.330729 0.14332,-0.132292 0.47405,-0.132292 z" />
      <path
         id="path833"
         style="font-style:normal;font-variant:normal;font-weight:normal;font-stretch:normal;font-size:22.57777786px;font-family:'Courier New';-inkscape-font-specification:'Courier New';stroke-width:0.26458332"
         d="M 140.61295,83.305403 V 81.60766 h 2.17179 q 0.33073,0 0.47404,0.132292 0.14332,0.132292 0.14332,0.341753 0,0.198438 -0.14332,0.33073 -0.14331,0.132291 -0.47404,0.132291 h -1.24575 v 9.249393 q 0,0.926041 -0.39687,1.653645 -0.26459,0.48507 -0.88195,1.003212 -0.61736,0.518143 -1.12448,0.738629 -0.50712,0.220486 -1.35599,0.220486 h -2.62378 q -0.33073,0 -0.47405,-0.132292 -0.14331,-0.121267 -0.14331,-0.330729 0,-0.209462 0.14331,-0.341753 0.14332,-0.132292 0.47405,-0.132292 l 2.65686,0.01102 q 0.81579,0 1.46623,-0.418923 0.66146,-0.418924 1.09141,-1.223698 0.24253,-0.463021 0.24253,-1.179601 v -2.778125 q -1.48828,2.039496 -3.83646,2.039496 -1.9072,0 -3.29627,-1.411111 -1.37803,-1.422135 -1.37803,-3.417534 0,-1.9954 1.37803,-3.406511 1.38907,-1.411111 3.29627,-1.411111 2.34818,0 3.83646,2.028472 z m 0,2.78915 q 0,-1.631598 -1.12448,-2.756077 -1.11345,-1.124479 -2.66788,-1.124479 -1.55443,0 -2.66788,1.135503 -1.11346,1.12448 -1.11346,2.745053 0,1.631597 1.11346,2.7671 1.11345,1.124479 2.66788,1.124479 1.55443,0 2.66788,-1.124479 1.12448,-1.135503 1.12448,-2.7671 z" />
      <path
         id="path835"
         style="font-style:normal;font-variant:normal;font-weight:normal;font-stretch:normal;font-size:22.57777786px;font-family:'Courier New';-inkscape-font-specification:'Courier New';stroke-width:0.26458332"
         d="m 156.04698,86.601671 h -9.43681 q 0.24254,1.796961 1.49931,2.899392 1.2678,1.091406 3.1309,1.091406 1.03629,0 2.17179,-0.341753 1.1355,-0.341754 1.85208,-0.903993 0.20947,-0.165365 0.36381,-0.165365 0.17639,0 0.30868,0.143316 0.13229,0.132292 0.13229,0.319705 0,0.187413 -0.17639,0.363802 -0.52917,0.551215 -1.88516,1.036285 -1.34496,0.474045 -2.7671,0.474045 -2.38125,0 -3.97977,-1.554427 -1.5875,-1.565452 -1.5875,-3.781337 0,-2.017448 1.48828,-3.461632 1.49931,-1.444184 3.70417,-1.444184 2.271,0 3.73724,1.488281 1.46623,1.477257 1.44418,3.836459 z m -0.93707,-0.937066 q -0.2756,-1.532379 -1.4552,-2.491493 -1.16858,-0.959115 -2.78915,-0.959115 -1.62058,0 -2.78915,0.94809 -1.16858,0.948091 -1.45521,2.502518 z" />
      <path
         id="path837"
         style="font-style:normal;font-variant:normal;font-weight:normal;font-stretch:normal;font-size:22.57777786px;font-family:'Courier New';-inkscape-font-specification:'Courier New';stroke-width:0.26458332"
         d="m 163.46634,81.60766 v 2.337153 q 1.80799,-1.631597 2.70095,-2.094618 0.904,-0.474045 1.66467,-0.474045 0.82683,0 1.53238,0.562239 0.71658,0.551216 0.71658,0.837848 0,0.209461 -0.14331,0.352777 -0.13229,0.132292 -0.34176,0.132292 -0.11024,0 -0.18741,-0.03307 -0.0772,-0.0441 -0.28663,-0.253559 -0.38585,-0.385851 -0.67248,-0.529167 -0.28664,-0.143316 -0.56224,-0.143316 -0.60634,0 -1.46624,0.48507 -0.84887,0.485069 -2.95451,2.370226 v 5.07118 h 4.10104 q 0.34175,0 0.48507,0.132292 0.14332,0.121267 0.14332,0.330729 0,0.198438 -0.14332,0.330729 -0.14332,0.132292 -0.48507,0.132292 h -7.26502 q -0.33073,0 -0.47404,-0.121267 -0.14332,-0.132292 -0.14332,-0.33073 0,-0.187413 0.13229,-0.30868 0.14332,-0.132292 0.48507,-0.132292 h 2.23794 v -7.717014 h -1.70877 q -0.33073,0 -0.47404,-0.132291 -0.14332,-0.132292 -0.14332,-0.341754 0,-0.198437 0.13229,-0.330729 0.14332,-0.132292 0.48507,-0.132292 z" />
    </g>
  </g>
</svg>
